<svg width="16" height="16" viewBox="0 0 16 16" fill="none" xmlns="http://www.w3.org/2000/svg">
<path fill-rule="evenodd" clip-rule="evenodd" d="M15.7433 1.671C15.5338 1.41534 15.3097 1.16763 15.0711 0.928978C14.8324 0.69033 14.5847 0.466265 14.329 0.256785L10.1213 4.46451C8.94975 5.63608 7.05025 5.63608 5.87868 4.46451L1.67095 0.256785C1.41529 0.466265 1.16758 0.69033 0.928932 0.928978C0.690284 1.16763 0.46622 1.41534 0.256739 1.671L4.46447 5.87873C5.63604 7.0503 5.63604 8.94979 4.46447 10.1214L0.256739 14.3291C0.46622 14.5848 0.690284 14.8325 0.928932 15.0711C1.16758 15.3098 1.41529 15.5338 1.67095 15.7433L5.87868 11.5356C7.05025 10.364 8.94975 10.364 10.1213 11.5356L14.329 15.7433C14.5847 15.5338 14.8324 15.3098 15.0711 15.0711C15.3097 14.8325 15.5338 14.5848 15.7433 14.3291L11.5355 10.1214C10.364 8.94979 10.364 7.0503 11.5355 5.87873L15.7433 1.671Z" fill="white"/>
</svg>
