<svg width="14" height="7" viewBox="0 0 14 7" fill="none" xmlns="http://www.w3.org/2000/svg">
<path d="M12.194 6.3468C12.3855 6.54572 12.7021 6.55171 12.901 6.36018C13.0999 6.16865 13.1059 5.85213 12.9144 5.6532L12.194 6.3468ZM0.63996 5.6532C0.44843 5.85213 0.454422 6.16865 0.653346 6.36018C0.852269 6.55171 1.16879 6.54572 1.36033 6.3468L0.63996 5.6532ZM7.85772 1.84313L12.194 6.3468L12.9144 5.6532L8.57808 1.14954L7.85772 1.84313ZM4.97626 1.14954L0.63996 5.6532L1.36033 6.3468L5.69662 1.84313L4.97626 1.14954ZM8.57808 1.14954C7.59469 0.128189 5.95965 0.128189 4.97626 1.14954L5.69662 1.84313C6.28666 1.23032 7.26768 1.23032 7.85772 1.84313L8.57808 1.14954Z" fill="white"/>
</svg>
